<svg xmlns="http://www.w3.org/2000/svg" width="256" height="256" viewBox="0 0 100 100"><rect width="100" height="100" rx="20" fill="#000000"></rect><path d="M31.75 74.54L14.49 74.54L14.49 24.78L30.76 24.78Q38.86 24.78 42.94 28.13Q47.03 31.47 47.03 38.04L47.03 38.04Q47.03 41.52 45.04 44.21Q43.06 46.89 39.64 48.36L39.64 48.36Q43.68 49.49 46.02 52.65Q48.36 55.81 48.36 60.19L48.36 60.19Q48.36 66.88 44.02 70.71Q39.68 74.54 31.75 74.54L31.75 74.54ZM31.99 51.26L21.05 51.26L21.05 69.17L31.88 69.17Q36.46 69.17 39.11 66.80Q41.76 64.42 41.76 60.25L41.76 60.25Q41.76 51.26 31.99 51.26L31.99 51.26ZM21.05 30.18L21.05 46.00L30.96 46.00Q35.27 46.00 37.85 43.85Q40.43 41.69 40.43 38.00L40.43 38.00Q40.43 33.90 38.04 32.04Q35.64 30.18 30.76 30.18L30.76 30.18L21.05 30.18ZM78.92 60.12L78.92 24.78L85.51 24.78L85.51 60.01Q85.51 67.16 81.22 71.19Q76.93 75.22 69.79 75.22L69.79 75.22Q62.37 75.22 58.24 71.43Q54.10 67.64 54.10 60.80L54.10 60.80L60.66 60.80Q60.66 65.07 63.01 67.47Q65.35 69.86 69.79 69.86L69.79 69.86Q73.86 69.86 76.37 67.29Q78.88 64.73 78.92 60.12L78.92 60.12Z" fill="#fff"></path></svg>